<svg id="Layer_1" data-name="Layer 1" xmlns="http://www.w3.org/2000/svg" viewBox="0 0 323 323"><defs><style>.cls-1{fill:#ff857c;}.cls-2{fill:#fff;}</style></defs><circle class="cls-1" cx="161.5" cy="161.5" r="161.5"/><path class="cls-2" d="M230.5,145H178V92a12.5,12.5,0,0,0-12.5-12.5h-9A12.5,12.5,0,0,0,144,92v53H91.5A12.5,12.5,0,0,0,79,157.5v8A12.5,12.5,0,0,0,91.5,178H144v53a12.5,12.5,0,0,0,12.5,12.5h9A12.5,12.5,0,0,0,178,231V178h52.5A12.5,12.5,0,0,0,243,165.5v-8A12.5,12.5,0,0,0,230.5,145Z"/></svg>