<svg id="Layer_1" data-name="Layer 1" xmlns="http://www.w3.org/2000/svg" viewBox="0 0 437.26 401.82"><defs><style>.cls-1{fill:#7faef5;}</style></defs><path class="cls-1" d="M105.46,113.15H4.3A4.29,4.29,0,0,0,0,117.44V284.12a4.29,4.29,0,0,0,4.3,4.29H105.46a4.3,4.3,0,0,1,3.2,1.44l92.43,103.7a4.29,4.29,0,0,0,7.5-2.86V10.87A4.29,4.29,0,0,0,201.09,8l-92.43,103.7A4.3,4.3,0,0,1,105.46,113.15Z"/><path class="cls-1" d="M241.68,0a5.78,5.78,0,0,0-5.93,5.77v48.5h.49a146.69,146.69,0,0,1,0,293.38h-.49v46a8.23,8.23,0,0,0,8.6,8.2C351.61,397.55,437.26,309.25,437.26,201,437.26,91.75,350.19,2.88,241.68,0Z"/><path class="cls-1" d="M240.09,105.1a4.18,4.18,0,0,0-4.34,4.18V131H236a70.08,70.08,0,0,1,0,140.16h-.24v21a4.83,4.83,0,0,0,5,4.84,96,96,0,0,0-.7-191.87Z"/></svg>