<svg id="Layer_1" data-name="Layer 1" xmlns="http://www.w3.org/2000/svg" viewBox="0 0 336 400"><defs><style>.cls-1{fill:#cacc69;}</style></defs><path class="cls-1" d="M184,224c0-4.42-7.16-8-16-8s-16,3.58-16,8,7.16,8,16,8S184,228.42,184,224Z"/><path class="cls-1" d="M336,176c0-54-14.44-77.35-24-92.8A37.71,37.71,0,0,1,304,64a277.13,277.13,0,0,1,7.76-54.06A8,8,0,0,0,304,0H32a8,8,0,0,0-7.76,9.94A277.13,277.13,0,0,1,32,64a37.62,37.62,0,0,1-8,19.2C14.4,98.68,0,122.07,0,176a152.53,152.53,0,0,0,5.08,39.54,341.15,341.15,0,0,0-4.17,56c0,4.87.67,14.91.79,15.34a153.8,153.8,0,0,0,6.73,35.63A354.59,354.59,0,0,1,24,392.74,8,8,0,0,0,32,400H304a8,8,0,0,0,8-7.26,355.27,355.27,0,0,1,15.63-70.21,153.26,153.26,0,0,0,6.72-35.63c.11-.43.8-10.47.8-15.34a342,342,0,0,0-4.16-56A152.62,152.62,0,0,0,336,176ZM160,384H39.1a377.78,377.78,0,0,0-15.51-66.53,111.8,111.8,0,0,1-3.85-15.29,255.07,255.07,0,0,0,90.53,41.63h0a136.7,136.7,0,0,1,25.91,8.06A64.73,64.73,0,0,0,160,359.5Zm152.42-66.5A377.46,377.46,0,0,0,296.91,384H176V359.5a64.68,64.68,0,0,0,23.83-7.63,136.57,136.57,0,0,1,25.92-8.06,255,255,0,0,0,90.52-41.6A111.8,111.8,0,0,1,312.42,317.5ZM168,296C70,296,16,253.38,16,176c0-49.41,12.5-69.66,21.6-84.43A50.69,50.69,0,0,0,48,64a256.92,256.92,0,0,0-6-48H294a256.84,256.84,0,0,0-6,48,50.69,50.69,0,0,0,10.4,27.57c9.1,14.77,21.6,35,21.6,84.43C320,253.38,266,296,168,296Z"/></svg>