<svg id="Layer_1" data-name="Layer 1" xmlns="http://www.w3.org/2000/svg" viewBox="0 0 336.01 400"><defs><style>.cls-1{fill:#cacc69;}</style></defs><path class="cls-1" d="M176,168c0-8.84-3.58-16-8-16s-8,7.16-8,16,3.59,16,8,16S176,176.84,176,168Z"/><path class="cls-1" d="M295.52,178.83A80.7,80.7,0,0,1,280,128c0-86.86,28.59-113.37,29.19-113.91A8,8,0,0,0,304,0H32a8,8,0,0,0-5.19,14.08C27.1,14.34,56,40.66,56,128a80.69,80.69,0,0,1-15.51,50.83C17.26,212,0,237.27,0,280A395.84,395.84,0,0,0,16.41,394.53,8,8,0,0,0,24,400H312a8,8,0,0,0,7.6-5.47A395.49,395.49,0,0,0,336,280C336,237.78,318.72,212,295.52,178.83ZM48.2,16H287.81C277.61,32.89,264,66.85,264,128a97.35,97.35,0,0,0,12.44,50.61,310.72,310.72,0,0,0-40,14.23c-10.31,5.16-19,10.3-26.65,14.85C193.81,217.16,182.28,224,168,224s-25.8-6.84-41.77-16.31c-7.67-4.55-16.35-9.69-26.65-14.85a311.26,311.26,0,0,0-40-14.23A97.35,97.35,0,0,0,72,128C72,66.85,58.4,32.89,48.2,16ZM160,384H30A397.59,397.59,0,0,1,16,280c0-5.17.21-9.95.58-14.4a199.46,199.46,0,0,1,44.9,6,194.27,194.27,0,0,1,64.13,40.3A103.61,103.61,0,0,0,160,334.76Zm146.05,0H176V334.76a103.55,103.55,0,0,0,34.4-22.84,194.17,194.17,0,0,1,64.15-40.33,197.13,197.13,0,0,1,44.89-6.1c.36,4.5.56,9.31.56,14.51A398,398,0,0,1,306.05,384Z"/></svg>