<svg id="Layer_1" data-name="Layer 1" xmlns="http://www.w3.org/2000/svg" viewBox="0 0 692.97 716.52"><defs><style>.cls-1{fill:#e0b475;}.cls-2{fill:#d19647;}</style></defs><path class="cls-1" d="M115.64,367.79S16,487.06,121,555.35,241.35,676,356.16,576.8l-21-52.17L427.64,509l32.74-48.91L516,411.63l55.67-53.37L537,320.63l-4-69L571.64,162l.33-32.34-94,12-57,69.86L379.72,198l-33.23-52L301,211.49,286.3,295.17,233,240.8l-30.26,43.83L178.3,335.19l5.17,62.94L145,355.84Z"/><path class="cls-2" d="M678.93,132.34c-10.32-2.69-19.34,3.68-22.64,13.23-.73,2.14-1.49,4.26-2.3,6.37-.32.86-.65,1.71-1,2.56-1.54,3.69-3.15,7.35-4.86,11a308.49,308.49,0,0,1-29.15,49c-.93,1.29-1.87,2.58-2.83,3.85-.08.11-.19.26-.32.42q-2,2.56-4,5.09c-3,3.74-6.15,7.41-9.37,11a253.92,253.92,0,0,1-21.18,21.09c-2.07,1.82-4.16,3.61-6.3,5.35-.85.69-4.51,3.51-4.38,3.45-3.09,2.28-6.24,4.48-9.47,6.55a158.38,158.38,0,0,1-21.06,11.49,135.8,135.8,0,0,0,17.06-14.43c44-44,46.15-108.17,46.25-115.34l.31-22.63a21.89,21.89,0,0,0-22.32-22.31l-22.62.31c-6.45.09-59,1.84-101.49,34.17.63-5.17,1.15-10.35,1.55-15.51,2.87-36.18.4-72.54-3.94-108.5C453.65,8.52,447.32,0,436.32,0c-9.2,0-19.75,8.49-18.54,18.54,4.21,35,6.8,70.39,4.16,105.56-.36,4.89-.8,9.78-1.38,14.64,0,.34-.07.61-.1.83s0,.17,0,.27c-.13,1-.27,1.93-.41,2.89-.29,1.92-.58,3.84-.91,5.75a233,233,0,0,1-5.64,25.18c-1.3,4.51-2.7,9-4.32,13.38-.06.16-.16.43-.3.77a194.07,194.07,0,0,0-33.95-50.47l-15.78-16.22a21.89,21.89,0,0,0-31.56,0l-15.78,16.22c-4.54,4.67-41,43.78-47.7,97.47L251.58,222c-6.89-7.09-19.53-5.57-28.23,3.4L207.6,241.61c-4.54,4.67-40.93,43.81-47.66,97.51l-12.44-12.8c-6.87-7.07-19.48-5.5-28.14,3.5s-15.71,16.3-15.71,16.3c-5,5.14-48.54,52.36-48.54,114.59s44.51,109.77,49.51,114.91L108,579,9.81,677.21c-10.86,10.86-13,26.33-4.92,34.41s23.55,6,34.41-4.91l98.2-98.2c6,5.79,52.41,48.71,114.13,48.74,62.23,0,109.16-43.82,114.3-48.82l16.22-15.78c9-8.72,10.48-21.37,3.39-28.27L372.7,551.9c53.71-6.73,92.79-43.16,97.46-47.7l16.23-15.78c8.95-8.72,10.47-21.37,3.38-28.27l-12.84-12.49c53.71-6.72,92.79-43.15,97.47-47.69l16.22-15.78a21.92,21.92,0,0,0,0-31.57L574.4,336.84A178.37,178.37,0,0,0,551,318.26c31.51-12.49,59-35.48,80.82-60.8,26-30.15,47.29-64.75,60.32-102.48C695.47,145.43,688.14,134.75,678.93,132.34ZM474.5,185.76c32.63-32.63,84.82-33.36,84.82-33.36s-.72,52.19-33.35,84.82-84.83,33.36-84.83,33.36S441.87,218.39,474.5,185.76ZM343.33,168.05s36.39,37.42,36.39,83.57-36.39,83.57-36.39,83.57-36.4-37.42-36.4-83.57S343.33,168.05,343.33,168.05ZM239.1,272.27s36.4,37.41,36.4,83.56-36.39,83.57-36.39,83.57-36.4-37.41-36.4-83.56S239.1,272.27,239.1,272.27ZM134.88,543.64s-36.4-37.42-36.4-83.57,36.4-83.58,36.4-83.58,36.39,37.42,36.39,83.58S134.88,543.64,134.88,543.64Zm116.74,69.57c-42.79,0-78.21-31.43-83-35.85l7.58-7.58c13.32-10.7,42.12-29.38,75.38-29.38,46.15,0,83.6,36.43,83.6,36.43S297.78,613.2,251.62,613.21ZM355.84,509c-42.79,0-78.2-31.43-83-35.84l7.59-7.59c13.31-10.69,42.13-29.36,75.38-29.38,46.15,0,83.61,36.45,83.61,36.45S402,509,355.84,509ZM460.07,404.75c-42.79,0-78.2-31.43-83-35.84l1-1-.48-.48c7.54-6.88,41.18-35.32,82.37-35.32,46.15,0,83.71,36.22,83.71,36.22S506.23,404.75,460.07,404.75Z"/></svg>