<svg id="Layer_1" data-name="Layer 1" xmlns="http://www.w3.org/2000/svg" viewBox="0 0 300 280"><defs><style>.cls-1{fill:#e0b475;}.cls-2{fill:#d19647;}</style></defs><path class="cls-1" d="M83.18,247.93l7.41-36.54a6.17,6.17,0,0,1,7.29-4.82,55.2,55.2,0,0,0,11.23.93c7.61,0,14.55-2,17.86-6.95l2.41-4.22a.89.89,0,0,0,0-.84L61.13,48.68A6.45,6.45,0,0,1,67,39.51h44.27a8.44,8.44,0,0,1,7.88,5.42l17.1,44.51,18.3,54.27a.92.92,0,0,0,.87.63h0a.91.91,0,0,0,.87-.64l17.66-54.26,14.93-43.37a9.75,9.75,0,0,1,9.2-6.56h42.25a5.21,5.21,0,0,1,4.84,7.14l-62,155.23c-14.22,35.05-35.38,56.54-71.42,56.54A93.41,93.41,0,0,1,88,255.76,6.72,6.72,0,0,1,83.18,247.93Z"/><path class="cls-2" d="M164.19,100.75s-7.87,31.68,18.24,34.93,33.81,11.73,46.38-17.54l-8.74-7.93,16-11.45,1.7-12.24,6.05-14.26,5.61-15.19-10-3.92-7.1-12.67L231.41,20l-2.91-6.14-16.65,10.9L207.5,43.19l-9,1.24-11.05-6.77-2.58,16.55,4.92,17.15L174.69,66,173,77.05l0,11.79,6.76,11.41L168.64,95.8Z"/><path class="cls-1" d="M249,4.55a4,4,0,0,0-3.06,4.58q.09.7.15,1.41c0,.19,0,.39.05.58,0,.84.08,1.67.09,2.51a64.52,64.52,0,0,1-1,11.94l-.18,1a.36.36,0,0,0,0,.11c-.1.44-.19.89-.3,1.33-.23,1-.48,2-.76,2.94a53.83,53.83,0,0,1-2.06,5.92c-.23.54-.46,1.07-.7,1.59-.1.21-.53,1.08-.51,1.06-.38.71-.77,1.42-1.19,2.1a32.88,32.88,0,0,1-2.92,4.11,28.73,28.73,0,0,0,1.9-4.29c4.27-12.36-1.22-24.67-1.86-26l-2-4.31a4.6,4.6,0,0,0-6.26-2.16l-4.25,2.14c-1.21.61-11,5.76-16,15.77-.35-1-.73-2.06-1.13-3.07A114.57,114.57,0,0,0,196.18,3.64C195,1.86,193.06.83,191,1.84c-1.74.84-2.95,3.42-1.8,5.2A114.58,114.58,0,0,1,199.66,26.6c.38.95.75,1.92,1.08,2.89l.06.16,0,.06.19.58c.12.39.24.78.35,1.17a48.18,48.18,0,0,1,1.25,5.28c.17,1,.32,1.94.41,2.92,0,0,0,.1,0,.17a40.62,40.62,0,0,0-11-6.41l-4.47-1.61a4.59,4.59,0,0,0-6,2.89c-.82,2.5-1.49,4.52-1.49,4.52-.43,1.3-3.72,12-.06,22.78l-3.53-1.27c-2-.71-4.21.74-5,3.23L170,68.48c-.43,1.29-3.7,12,0,22.79L166.4,90c-2-.7-4.18.75-5,3.25l-1.47,4.52c-.47,1.43-4.36,14.35,1.36,26.1S179.78,140.5,181.2,141l1,.33-9.53,27.56c-1.05,3.05,0,6.17,2.24,7s5-1,6-4.09l9.53-27.56c1.67.54,14.37,4.38,26-1.28s16.59-18.3,17.1-19.72l1.62-4.47c.89-2.47,0-5-2-5.65l-3.57-1.18c9.53-6.2,13.56-16.67,14-18l1.61-4.47c.89-2.47,0-5-2-5.65l-3.57-1.17c9.53-6.21,13.56-16.68,14-18l1.61-4.47a4.59,4.59,0,0,0-2.9-6L248,52.77a37.94,37.94,0,0,0-6.12-1.36c4.8-5.25,7.88-12.11,9.68-18.9a66.65,66.65,0,0,0,2-24.9A3.91,3.91,0,0,0,249,4.55Zm-33.7,28.86c3.17-9.16,13-14.09,13-14.09s4.65,9.93,1.49,19.09-13,14.09-13,14.09S212.08,42.57,215.25,33.41Zm-26.4,8.71s10.31,3.72,14.55,12.44.8,19.12.8,19.12S193.89,70,189.65,61.24,188.85,42.12,188.85,42.12ZM178.74,71.37s10.31,3.73,14.55,12.44.8,19.13.8,19.13-10.31-3.73-14.55-12.44S178.74,71.37,178.74,71.37ZM184,132.2s-10.31-3.73-14.55-12.45-.8-19.12-.8-19.12,10.31,3.72,14.54,12.44S184,132.2,184,132.2Zm28.43,2.41c-8.08,3.93-17.65,1.25-19,.85l.74-2.13c1.53-3.24,5.25-9.41,11.53-12.47,8.72-4.23,19.14-.79,19.14-.79S221.13,130.37,212.41,134.61Zm10.12-29.25c-8.09,3.93-17.66,1.24-19,.85l.74-2.13c1.53-3.24,5.26-9.42,11.54-12.47,8.71-4.24,19.14-.8,19.14-.8S231.24,101.12,222.53,105.36ZM232.64,76.1c-8.08,3.93-17.66,1.25-19,.85l.09-.27-.14,0c.8-2,4.54-10.46,12.32-14.24,8.71-4.24,19.13-.85,19.13-.85S241.35,71.86,232.64,76.1Z"/></svg>