<svg id="Layer_1" data-name="Layer 1" xmlns="http://www.w3.org/2000/svg" viewBox="0 0 192.03 172"><defs><style>.cls-1{fill:#c4615f;}.cls-2{fill:#ff857c;}.cls-3{fill:#fff;}</style></defs><path class="cls-1" d="M51,110.41s-8.6,34.1-48.33,48.33c0,0,65.18,8.17,77.4-3"/><circle class="cls-1" cx="107.53" cy="87.5" r="84.5"/><path class="cls-2" d="M47.47,105.5S39,139,0,153c0,0,64,8,76-3"/><circle class="cls-2" cx="103.03" cy="83" r="83"/><circle class="cls-3" cx="103.33" cy="52.18" r="27.83"/><path class="cls-3" d="M125.27,87.25,103.48,109l-22-22A63.68,63.68,0,0,0,48,115a63.5,63.5,0,0,0,110,0A63.79,63.79,0,0,0,125.27,87.25Z"/><rect class="cls-2" x="128.03" y="100.98" width="6.66" height="23.19" rx="3.33" transform="translate(262.72 225.15) rotate(180)"/><rect class="cls-2" x="127.78" y="100.98" width="7.15" height="23.19" rx="3.33" transform="translate(243.94 -18.78) rotate(90)"/></svg>