<svg id="Layer_1" data-name="Layer 1" xmlns="http://www.w3.org/2000/svg" viewBox="0 0 186.03 166"><defs><style>.cls-1{fill:#ff857c;}</style></defs><path class="cls-1" d="M103,0a83,83,0,0,0-68.8,129.44A78,78,0,0,1,0,153s38.58,4.84,61.46,1.86A83,83,0,1,0,103,0Zm.3,24.36A27.83,27.83,0,1,1,75.5,52.18,27.82,27.82,0,0,1,103.33,24.36Zm-.3,122.4A63.47,63.47,0,0,1,48,115,63.68,63.68,0,0,1,81.45,87l22,22,21.79-21.79A63.79,63.79,0,0,1,158,115,63.49,63.49,0,0,1,103,146.76Z"/><path class="cls-1" d="M139.62,109h-4.93v-4.69a3.33,3.33,0,1,0-6.66,0V109H123.1a3.34,3.34,0,0,0-3.34,3.33v.49a3.34,3.34,0,0,0,3.34,3.33H128v4.69a3.33,3.33,0,1,0,6.66,0v-4.69h4.93a3.33,3.33,0,0,0,3.33-3.33v-.49A3.33,3.33,0,0,0,139.62,109Z"/></svg>