<svg id="Layer_1" data-name="Layer 1" xmlns="http://www.w3.org/2000/svg" viewBox="0 0 80 80"><defs><style>.cls-1{fill:#ff857c;}</style></defs><path class="cls-1" d="M67.74,26H12.26A5.25,5.25,0,0,0,7,31.26V74.74A5.25,5.25,0,0,0,12.26,80H67.74A5.25,5.25,0,0,0,73,74.74V31.26A5.25,5.25,0,0,0,67.74,26ZM25,71a5,5,0,0,1-10,0V39a5,5,0,0,1,10,0Zm20,0a5,5,0,0,1-10,0V39a5,5,0,0,1,10,0Zm20,0a5,5,0,0,1-10,0V39a5,5,0,0,1,10,0Z"/><path class="cls-1" d="M75.52,13H58.94a5.12,5.12,0,0,0,.06-.78V5.74A5.74,5.74,0,0,0,53.26,0H26.74A5.74,5.74,0,0,0,21,5.74v6.52a5.12,5.12,0,0,0,.06.78H4.48a4.48,4.48,0,0,0,0,9h71a4.48,4.48,0,1,0,0-9ZM25,12.72V6.28A3.28,3.28,0,0,1,28.28,3H51.72A3.28,3.28,0,0,1,55,6.28v6.44c0,.11,0,.21,0,.32H25C25,12.93,25,12.83,25,12.72Z"/></svg>