<svg id="Layer_1" data-name="Layer 1" xmlns="http://www.w3.org/2000/svg" viewBox="0 0 81 82"><defs><style>.cls-1{fill:#c4615f;}.cls-2{fill:#ff857c;}</style></defs><path class="cls-1" d="M54.11,1H26.89A6,6,0,0,0,21,7V13.9a6,6,0,0,0,5.89,6H54.11a6,6,0,0,0,5.89-6V7A6,6,0,0,0,54.11,1Zm1.78,13.39a3.4,3.4,0,0,1-3.36,3.45H28.47a3.4,3.4,0,0,1-3.36-3.45V7.61a3.4,3.4,0,0,1,3.36-3.45H52.53a3.4,3.4,0,0,1,3.36,3.45Z"/><rect class="cls-1" y="13" width="81" height="9.93" rx="4.48"/><rect class="cls-1" x="7" y="26" width="67" height="56" rx="5.26"/><rect class="cls-2" x="7" y="26" width="66" height="54" rx="5.26"/><rect class="cls-1" x="-1" y="50" width="42" height="10" rx="5" transform="translate(75 35) rotate(90)"/><rect class="cls-1" x="19" y="50" width="42" height="10" rx="5" transform="translate(95 15) rotate(90)"/><rect class="cls-1" x="39" y="50" width="42" height="10" rx="5" transform="translate(115 -5) rotate(90)"/><path class="cls-2" d="M53.26,0H26.74A5.74,5.74,0,0,0,21,5.74v6.52A5.74,5.74,0,0,0,26.74,18H53.26A5.74,5.74,0,0,0,59,12.26V5.74A5.74,5.74,0,0,0,53.26,0ZM55,12.72A3.28,3.28,0,0,1,51.72,16H28.28A3.28,3.28,0,0,1,25,12.72V6.28A3.28,3.28,0,0,1,28.28,3H51.72A3.28,3.28,0,0,1,55,6.28Z"/><rect class="cls-2" y="13.04" width="80" height="8.96" rx="4.48"/></svg>