<svg id="Layer_1" data-name="Layer 1" xmlns="http://www.w3.org/2000/svg" viewBox="0 0 95.98 93.37"><defs><style>.cls-1{fill:#7faef5;}</style></defs><path class="cls-1" d="M93.06,18,55,.1a1,1,0,0,0-1.49,1V11a1,1,0,0,1-1,1C23.11,13.52,10.25,27.05,5.88,33.21a1,1,0,0,0,1.3,1.54C28,25.25,44.46,25.14,52.54,26a1,1,0,0,1,.94,1v9.83a1,1,0,0,0,1.49.94L93.06,19.88A1,1,0,0,0,93.06,18Z"/><path class="cls-1" d="M9,67.51.58,45c-.13-.35.05-.76.33-.76h9.46a.4.4,0,0,1,.35.32L13,52.24c.75,2.27,1.5,5,2.47,8.17h.22c.75-3.18,1.5-5.9,2.15-8.17l2-7.67a.41.41,0,0,1,.36-.34h9c.28,0,.46.41.33.76L21.06,68.11a1.77,1.77,0,0,0,0,1.22L30,92.59c.13.35,0,.78-.33.78H20.22a.4.4,0,0,1-.34-.31l-2.7-8.46c-.86-2.57-1.61-5.15-2.47-8.17h-.22c-.75,3-1.5,5.6-2.26,8.17L9.75,93a.41.41,0,0,1-.35.33h-9c-.28,0-.46-.42-.33-.77L9,68.72A1.68,1.68,0,0,0,9,67.51Z"/><path class="cls-1" d="M35.38,44.23H44.3c.15,0,.28.13.33.34l5,19.77c.62,2.72,1.14,5.74,1.76,8.61h.2c.63-2.87,1.14-5.89,1.76-8.61l4.78-19.77a.4.4,0,0,1,.34-.34h8.91c.2,0,.36.23.36.52V92.84c0,.29-.16.53-.36.53H60c-.2,0-.36-.24-.36-.53v-14c0-5,.72-12.62,1.14-17.54h-.21L57.79,73.1,53.74,89a.4.4,0,0,1-.34.34H49.14c-.15,0-.28-.14-.33-.34L44.75,73.1,42.06,61.31h-.21C42.27,66.23,43,73.86,43,78.85v14c0,.29-.16.53-.36.53H35.38c-.2,0-.36-.24-.36-.53V44.75C35,44.46,35.18,44.23,35.38,44.23Z"/><path class="cls-1" d="M73.87,44.23h8.51c.2,0,.37.23.37.52V82c0,.28.17.52.37.52H95.61c.2,0,.37.23.37.52v9.84c0,.29-.17.53-.37.53H73.87c-.21,0-.37-.24-.37-.53V44.75C73.5,44.46,73.66,44.23,73.87,44.23Z"/></svg>