<svg id="Layer_1" data-name="Layer 1" xmlns="http://www.w3.org/2000/svg" viewBox="0 0 161 161"><defs><style>.cls-1{fill:#ff857c;}</style></defs><path class="cls-1" d="M142.9,0H18.1A18.11,18.11,0,0,0,0,18.1V142.9A18.11,18.11,0,0,0,18.1,161H142.9A18.11,18.11,0,0,0,161,142.9V18.1A18.11,18.11,0,0,0,142.9,0Zm-2.27,131.36a9.27,9.27,0,0,1-9.27,9.27H29.64a9.27,9.27,0,0,1-9.27-9.27V29.64a9.27,9.27,0,0,1,9.27-9.27H131.36a9.27,9.27,0,0,1,9.27,9.27Z"/><path class="cls-1" d="M125.22,75.77,83.85,36.38V61.69c-38.8,3.3-49.19,49-49.19,49,23-23,41.17-22.47,49.19-20.56v25Z"/></svg>