<svg id="Layer_1" data-name="Layer 1" xmlns="http://www.w3.org/2000/svg" viewBox="0 0 164 165"><defs><style>.cls-1{fill:#c4615f;}.cls-2{fill:#ff857c;}</style></defs><path class="cls-1" d="M126.57,80.7,84,40.16V66.21c-39.93,3.4-50.62,50.43-50.62,50.43C57,93,75.74,93.52,84,95.48v25.76Z"/><path class="cls-1" d="M145.56,0H18.44A18.5,18.5,0,0,0,0,18.55v127.9A18.5,18.5,0,0,0,18.44,165H145.56A18.5,18.5,0,0,0,164,146.45V18.55A18.5,18.5,0,0,0,145.56,0Zm-2.31,134.63a9.47,9.47,0,0,1-9.44,9.5H30.19a9.47,9.47,0,0,1-9.44-9.5V30.37a9.47,9.47,0,0,1,9.44-9.5H133.81a9.47,9.47,0,0,1,9.44,9.5Z"/><path class="cls-2" d="M142.9,0H18.1A18.11,18.11,0,0,0,0,18.1V142.9A18.11,18.11,0,0,0,18.1,161H142.9A18.11,18.11,0,0,0,161,142.9V18.1A18.11,18.11,0,0,0,142.9,0Zm-2.27,131.36a9.27,9.27,0,0,1-9.27,9.27H29.64a9.27,9.27,0,0,1-9.27-9.27V29.64a9.27,9.27,0,0,1,9.27-9.27H131.36a9.27,9.27,0,0,1,9.27,9.27Z"/><path class="cls-2" d="M125.22,75.77,83.85,36.38V61.69c-38.8,3.3-49.19,49-49.19,49,23-23,41.17-22.47,49.19-20.56v25Z"/></svg>