<svg id="Layer_1" data-name="Layer 1" xmlns="http://www.w3.org/2000/svg" viewBox="0 0 300 280"><defs><style>.cls-1{fill:#e3e887;}.cls-2{fill:#cacc69;}</style></defs><path class="cls-1" d="M269.16,250.87,231.41,149l5.84-21.17c4.13-15.52,9.31-19,15.52-19l.51,0c2.7.24,5-2.26,5.37-5.5L264.22,47c.29-3-1.21-5.78-3.58-6.7A19.82,19.82,0,0,0,253.28,39c-20.17,0-33.62,10.34-43.45,44.82L199.27,120h-3.39a4.46,4.46,0,0,1-2.31-.66v59.07a4.46,4.46,0,0,1,2.31-.66,5.31,5.31,0,0,1,4.86,4.07l22.83,73.75a5.33,5.33,0,0,0,4.86,4.07h36C268.18,259.67,270.7,255,269.16,250.87Z"/><path class="cls-1" d="M31.46,249.87,69.21,148l-5.84-21.17c-4.13-15.52-9.31-19-15.52-19l-.51,0c-2.7.24-5.05-2.26-5.37-5.5L36.4,46c-.29-3,1.21-5.78,3.58-6.7A19.82,19.82,0,0,1,47.34,38C67.51,38,81,48.34,90.79,82.82L101.35,119h3.39a4.46,4.46,0,0,0,2.31-.66v59.07a4.46,4.46,0,0,0-2.31-.66,5.32,5.32,0,0,0-4.86,4.07L77.05,254.6a5.33,5.33,0,0,1-4.86,4.07h-36C32.44,258.67,29.92,254,31.46,249.87Z"/><rect class="cls-1" x="113" y="74" width="74" height="185" rx="13.28"/><rect class="cls-2" x="122" y="83" width="56" height="167" rx="10.35"/><path class="cls-1" d="M141,42h18a5.61,5.61,0,0,1,5.61,5.61V69a0,0,0,0,1,0,0H135.4a0,0,0,0,1,0,0V47.61A5.61,5.61,0,0,1,141,42Z"/><rect class="cls-1" x="113" y="119" width="74" height="58"/><path class="cls-2" d="M163.15,150.94c0-.42.65-11.63-13.53-24,0,0-13.62,11.61-13.62,24v0a11.69,11.69,0,0,0,0,1.45c0,6.57,6.1,11.9,13.62,11.9s13.5-5.32,13.5-11.89A11.46,11.46,0,0,0,163.15,150.94Z"/></svg>