<svg id="Layer_1" data-name="Layer 1" xmlns="http://www.w3.org/2000/svg" viewBox="0 0 570.07 791"><defs><style>.cls-1{fill:#cacc69;}.cls-2{fill:#e3e887;}</style></defs><path class="cls-1" d="M569.61,508.83c.61-8.9,13.72-246.37-283.5-508.83C286.11,0,.58,245.91.58,509.12v-1c-1.3,9.76,0,20.67,0,30.73C.58,678.11,128.41,791,286.11,791S568.94,678.31,568.94,539.06C568.94,528.89,570.94,518.68,569.61,508.83Z"/><path class="cls-2" d="M497.37,470.34c.45-6.58,10.25-182.19-211.93-376.27,0,0-213.43,181.85-213.43,376.48v-.72c-1,7.21,0,15.28,0,22.72C72,595.52,167.57,679,285.44,679s211.43-83.33,211.43-186.31C496.87,485.18,498.36,477.62,497.37,470.34Z"/></svg>