<svg id="Layer_1" data-name="Layer 1" xmlns="http://www.w3.org/2000/svg" viewBox="0 0 300 280"><defs><style>.cls-1{fill:#7faef5;}</style></defs><path class="cls-1" d="M29.19,32h95.58a7.81,7.81,0,0,1,7.81,7.81V64.19A7.81,7.81,0,0,1,124.77,72H74.3a7.81,7.81,0,0,0-7.81,7.81V249.19A7.81,7.81,0,0,1,58.68,257H29.19a7.81,7.81,0,0,1-7.81-7.81V39.81A7.81,7.81,0,0,1,29.19,32Z"/><path class="cls-1" d="M146.05,32.11h32.33a6.06,6.06,0,0,1,6.06,6.06v72.4a6.05,6.05,0,0,0,6.05,6.05h38a6.05,6.05,0,0,0,6.05-6.05V38.17a6.06,6.06,0,0,1,6.06-6.06H273A6.05,6.05,0,0,1,279,38.17V253.05a6.06,6.06,0,0,1-6.05,6.06H240.62a6.06,6.06,0,0,1-6.06-6.06v-78a6.05,6.05,0,0,0-6.05-6.05h-38a6.05,6.05,0,0,0-6.05,6.05v78a6.06,6.06,0,0,1-6.06,6.06H146.05a6.06,6.06,0,0,1-6.05-6.06V38.17A6.05,6.05,0,0,1,146.05,32.11Z"/></svg>