<svg id="Layer_1" data-name="Layer 1" xmlns="http://www.w3.org/2000/svg" viewBox="0 0 634.58 502.66"><defs><style>.cls-1{fill:#e188e5;}.cls-2{fill:#c76acc;}</style></defs><path class="cls-1" d="M224.14,482.66c-29.39,0-57-5.36-81.94-15.93a183.29,183.29,0,0,1-65.33-46.52C39.66,378.9,20,320.62,20,251.69c0-68.54,20.15-126.85,58.26-168.64a188.61,188.61,0,0,1,66.25-46.89C169.85,25.44,197.65,20,227.15,20c51.33,0,95.73,19,131.94,56.38l12.56,13L317.34,153.9,301.93,138c-22-22.69-43.95-32.38-73.41-32.38-70.89,0-114.93,55.45-114.93,144.7,0,46.27,10.63,84.08,30.75,109.34C164.09,384.46,192.59,397,229,397c20.63,0,40.6-5.2,53.47-13.61V306.92H196.17v-83H369.82V423.35l-5.56,5.8C331.64,463.15,280.57,482.66,224.14,482.66Z"/><path class="cls-2" d="M227.15,40c56.5,0,93.7,25.63,117.57,50.29l-28.43,33.78c-20.66-21.32-46.83-38.46-87.77-38.46-82.15,0-134.93,63.13-134.93,164.7C93.59,352.81,142.05,417,229,417c29.24,0,57.37-8.77,73.47-24V286.92H216.17v-43H349.82V415.31c-26.22,27.34-70.88,47.35-125.68,47.35C116.57,462.66,40,384.11,40,251.69,40,120.18,119.05,40,227.15,40m0-40C195,0,164.53,6,136.71,17.75A208.3,208.3,0,0,0,63.49,69.57c-20.55,22.53-36.43,49.56-47.2,80.35S0,215,0,251.69c0,74,21.44,136.86,62,181.91a203.1,203.1,0,0,0,72.4,51.55c27.46,11.62,57.65,17.51,89.73,17.51,31.34,0,61-5.46,88.27-16.23,25.95-10.26,48.87-25.28,66.28-43.43l11.13-11.61V203.92H176.17v123h86.34v44.32A93.57,93.57,0,0,1,229,377c-30.47,0-53.06-9.76-69.06-29.85-17.27-21.68-26.39-55.18-26.39-96.88,0-40.29,9.52-73.14,27.53-95,16.23-19.7,38.91-29.7,67.4-29.7,23.84,0,41,7.62,59,26.3l30.82,31.81,28.51-33.89L375.33,116l23.25-27.63L373.46,62.46A207.77,207.77,0,0,0,315.79,20c-27-13.27-56.86-20-88.64-20Z"/><polygon class="cls-1" points="433.17 475.06 433.17 27.45 525.05 27.45 525.19 391.44 614.2 391.44 614.2 476.34 433.17 475.06"/><path class="cls-2" d="M505.06,47.45l.14,364h89V456.2l-141-1V47.45h51.89m40-40H413.17V494.92l39.72.28,141,1,40.29.28v-125h-89l-.12-324v-40Z"/></svg>