<svg id="Layer_1" data-name="Layer 1" xmlns="http://www.w3.org/2000/svg" viewBox="0 0 161 161"><defs><style>.cls-1{fill:#7faef5;}</style></defs><rect class="cls-1" x="35.11" y="57.06" width="91" height="14" rx="7"/><rect class="cls-1" x="34.78" y="83.72" width="91" height="14" rx="7"/><rect class="cls-1" x="34.78" y="110.72" width="91" height="14" rx="7"/><path class="cls-1" d="M142.9,0H18.1A18.11,18.11,0,0,0,0,18.1V142.9A18.11,18.11,0,0,0,18.1,161H142.9A18.11,18.11,0,0,0,161,142.9V18.1A18.11,18.11,0,0,0,142.9,0Zm-2.27,131.36a9.27,9.27,0,0,1-9.27,9.27H29.64a9.27,9.27,0,0,1-9.27-9.27V29.64a9.27,9.27,0,0,1,9.27-9.27h80.15V45.72L120,37.8l10.19,7.92V20.37h1.2a9.27,9.27,0,0,1,9.27,9.27Z"/></svg>