<svg id="Layer_1" data-name="Layer 1" xmlns="http://www.w3.org/2000/svg" viewBox="0 0 408 408"><defs><style>.cls-1{fill:#7faef5;}</style></defs><path class="cls-1" d="M204,0C91.33,0,0,91.33,0,204S91.33,408,204,408s204-91.33,204-204S316.67,0,204,0Zm-8.93,358.48a22.14,22.14,0,1,1,22.14-22.13A22.14,22.14,0,0,1,195.07,358.48ZM241.21,230.8l0-.09a55,55,0,0,0-28,70h-36a89.48,89.48,0,0,1,49.67-101.28l.05.09a55,55,0,1,0-73-27.1l.09.18-31.32,14.35c0-.07-.06-.13-.08-.19A89.5,89.5,0,1,1,241.21,230.8Z"/></svg>