<svg id="Layer_1" data-name="Layer 1" xmlns="http://www.w3.org/2000/svg" viewBox="0 0 301.23 345.38"><defs><style>.cls-1{fill:#4e8dea;}.cls-2{fill:#7faef5;}</style></defs><circle class="cls-1" cx="150.62" cy="194.76" r="150.62"/><circle class="cls-2" cx="150.62" cy="194.76" r="131.36"/><rect class="cls-1" x="116.86" y="19.48" width="67.52" height="216.84" rx="12.06"/><rect class="cls-2" x="129.84" y="33.84" width="41.55" height="188.12" rx="5.89"/><rect class="cls-1" x="132.44" y="223.33" width="36.36" height="46.74" rx="4.83"/><path class="cls-2" d="M140.06,236h21.12a0,0,0,0,1,0,0V257.6a4.83,4.83,0,0,1-4.83,4.83H144.89a4.83,4.83,0,0,1-4.83-4.83V236A0,0,0,0,1,140.06,236Z"/><path class="cls-1" d="M146.72,270.07h7.79a0,0,0,0,1,0,0v32.55a3.81,3.81,0,0,1-3.81,3.81h-4a0,0,0,0,1,0,0V270.07A0,0,0,0,1,146.72,270.07Z"/><rect class="cls-1" x="132.44" y="3.9" width="37.65" height="27.27" rx="5.33"/><rect class="cls-2" x="138.93" y="9.09" width="24.67" height="11.69" rx="2.65"/><rect class="cls-1" x="98.68" width="105.17" height="9.09" rx="2.9"/><rect class="cls-1" x="142.83" y="179.18" width="31.16" height="10.39" rx="1.99"/><rect class="cls-1" x="153.21" y="149.32" width="31.16" height="10.39" rx="1.99"/><rect class="cls-1" x="142.83" y="119.45" width="31.16" height="10.39" rx="1.99"/><rect class="cls-1" x="153.21" y="89.59" width="31.16" height="10.39" rx="1.99"/><rect class="cls-1" x="142.83" y="61.03" width="31.16" height="10.39" rx="1.99"/></svg>