<svg id="Layer_1" data-name="Layer 1" xmlns="http://www.w3.org/2000/svg" viewBox="0 0 301.23 345.38"><defs><style>.cls-1{fill:#7faef5;}</style></defs><path class="cls-1" d="M184.38,48V31.53a12.05,12.05,0,0,0-12.06-12h-2.23V9.23c0-.05,0-.09,0-.14H201a2.9,2.9,0,0,0,2.9-2.9V2.9A2.9,2.9,0,0,0,201,0H101.58a2.9,2.9,0,0,0-2.9,2.9V6.19a2.9,2.9,0,0,0,2.9,2.9h30.87c0,.05,0,.09,0,.14V19.48h-3.53a12.05,12.05,0,0,0-12,12.05V48a150.61,150.61,0,1,0,67.52,0ZM138.93,18.12V11.74a2.65,2.65,0,0,1,2.65-2.65H161a2.65,2.65,0,0,1,2.65,2.65v6.38a2.62,2.62,0,0,1-.38,1.36H139.31A2.72,2.72,0,0,1,138.93,18.12Zm-9.09,21.61a5.89,5.89,0,0,1,5.89-5.89H165.5a5.89,5.89,0,0,1,5.89,5.89V61H144.81a2,2,0,0,0-2,2v6.42a2,2,0,0,0,2,2h26.58V89.59H155.2a2,2,0,0,0-2,2V98a2,2,0,0,0,2,2h16.19v19.47H144.81a2,2,0,0,0-2,2v6.42a2,2,0,0,0,2,2h26.58v19.48H155.2a2,2,0,0,0-2,2v6.42a2,2,0,0,0,2,2h16.19v19.47H144.81a2,2,0,0,0-2,2v6.41a2,2,0,0,0,2,2h26.58v26.49A5.89,5.89,0,0,1,165.5,222H135.73a5.89,5.89,0,0,1-5.89-5.89Zm10.22,196.58h21.12V257.6a4.84,4.84,0,0,1-4.84,4.83H144.89a4.83,4.83,0,0,1-4.83-4.83Zm10.56,89.82A131.38,131.38,0,0,1,116.86,67.79V224.26a12.06,12.06,0,0,0,12,12.05h3.53v28.93a4.83,4.83,0,0,0,4.83,4.83h9.45v36.36h4a3.81,3.81,0,0,0,3.8-3.81V270.07H164a4.83,4.83,0,0,0,4.83-4.83V236.31h3.53a12.06,12.06,0,0,0,12.06-12.05V67.79a131.38,131.38,0,0,1-33.76,258.34Z"/></svg>