<svg id="Layer_1" data-name="Layer 1" xmlns="http://www.w3.org/2000/svg" viewBox="0 0 300 280"><defs><style>.cls-1{fill:#ff857c;}</style></defs><path class="cls-1" d="M236.78,231.89a.69.69,0,0,0-1.15.22c-.44,1.15-1.41,2.74-3.42,2.37-2.81-.53-1.58-4.84-1.23-6.78a16,16,0,0,0-.69-8.9c-2.62-6.57-8.79-7.63-12.59-7.8a.69.69,0,0,0-.53,1.17,9,9,0,0,1,2.06,3.2,7.45,7.45,0,0,1-1.48,7.11l-40-82.45a9.26,9.26,0,0,0,3.53-3.94l14.54-30.61c5.71-12.15,10.33-16.87,18.49-16.87h.21a9.42,9.42,0,0,0,9.32-8l5.09-34.79a12.22,12.22,0,0,0,.73-1.25c7.57-14.55-1.09-24.87-1.09-24.87.24,5.32-2.16,6.71-4.1,7a5.76,5.76,0,0,1-3.58-.74C210.24,20.13,215.72,6,215.72,6c-7,6.68-3.35,20.55-3.35,20.55s1.74,6.35-1.14,8.12c-1.16,0-2.31.12-3.43.24a2.66,2.66,0,0,1-1.41-1.32,3.52,3.52,0,0,1,0-2.86c3-7.45.43-11.65.43-11.65a38.69,38.69,0,0,1-4.06,8.76,16.15,16.15,0,0,0-2.69,8c0,.18,0,.35,0,.53a40.45,40.45,0,0,0-8.5,3.43c-.61-.78-1.24-1.56-2-2.46-4-5.15-2.2-11-1.22-13.36a.34.34,0,0,0-.5-.41c-1.72,1.17-5.25,3.93-6.89,7.8-2.22,5.24-2.06,7.81-.74,10.94.79,1.89-.13,2.29-.59,2.36a1.53,1.53,0,0,1-1.2-.54,7.07,7.07,0,0,1-2-3.35.34.34,0,0,0-.59-.12A12.34,12.34,0,0,0,174,47a10.47,10.47,0,0,0,2.11,6.46,105.65,105.65,0,0,0-11.81,20.28l-20.23,44.06a8.39,8.39,0,0,0-.89-3.92,46.12,46.12,0,0,0-2.66-4.44c-2.75-4.38-1.12-9.08-.27-10.94a.26.26,0,0,0-.35-.36,15.45,15.45,0,0,0-5.55,6c-1.93,4.17-1.94,6.27-1.11,8.89.51,1.57-.2,1.86-.55,1.89a1.08,1.08,0,0,1-.87-.49,5.86,5.86,0,0,1-1.3-2.82.25.25,0,0,0-.44-.13,10.73,10.73,0,0,0-1.74,5.11,8.56,8.56,0,0,0,0,1.52,9.33,9.33,0,0,1-1.58-5.21V55.46a15.75,15.75,0,0,0,6.83-14,16.14,16.14,0,0,0-2.68-8,38.61,38.61,0,0,1-4-8.77s-2.56,4.21.43,11.65a3.56,3.56,0,0,1-.06,2.86c-.47,1-1.5,1.86-3.7,1.51a4.21,4.21,0,0,1-.42-.12,9.87,9.87,0,0,0-1.42-.92c-1.83-2.3-.41-7.51-.41-7.51s3.62-13.87-3.33-20.54c0,0,5.45,14.13-5.16,19.92a5.66,5.66,0,0,1-3.57.73c-1.93-.27-4.31-1.67-4.08-7A21,21,0,0,0,101.24,35c-1.35-2-2.69-3.55-4.28-5.61-5.2-6.69-2.87-14.32-1.6-17.36a.44.44,0,0,0-.64-.54c-2.24,1.53-6.82,5.11-9,10.14-2.89,6.81-2.68,10.15-1,14.22,1,2.45-.16,3-.76,3.06a2,2,0,0,1-1.55-.7,9.24,9.24,0,0,1-2.54-4.35.44.44,0,0,0-.77-.16A16.07,16.07,0,0,0,76.7,42,13.65,13.65,0,0,0,80,51.05V248.61A9.38,9.38,0,0,0,89.39,258h28a9.39,9.39,0,0,0,9.39-9.39v-70.3a9.39,9.39,0,0,1,17.81-4.17l38.87,78.63a9.41,9.41,0,0,0,8.42,5.23H220a9.45,9.45,0,0,0,3.64-.72c7.45-.24,14.8-5.66,16.13-13.06C240.47,240.3,240.18,235.75,236.78,231.89Z"/></svg>