<svg id="Layer_1" data-name="Layer 1" xmlns="http://www.w3.org/2000/svg" viewBox="0 0 642.81 852.18"><defs><style>.cls-1{fill:#c4615f;}.cls-2{fill:#ff857c;}.cls-3{fill:#ffa9a9;}</style></defs><path class="cls-1" d="M126.86,224.14s-31.76,159.53-17,203.55c0,0,19.52-241.35,207.1-427.69,0,0-6,156,91.39,235.14S527.75,437.45,527.75,437.45s11-84.12-22-218.82c0,0,207.1,215.09,112.15,455.2,0,0-114.46,264.42-442.23,148.71S68.3,265.66,126.86,224.14Z"/><path class="cls-2" d="M476.64,428c3,67.61-27.5,85.36-52.17,88.91-15.8,2.31-31.77-1.78-45.61-9.41C243.1,433.9,312.84,254,312.84,254c-88.9,85-42.59,261.58-42.59,261.58s27.51,100.09-28.75,108.78c-28.21,4.44-41.34-6.92-47.38-19.16a44.8,44.8,0,0,1-.71-36.38c38.16-94.77,5.5-148.36,5.5-148.36-18.28,54.3-37.62,90.15-51.64,111.62C127.4,562.56,114.8,597.34,113,633.72,106.63,769.3,220.21,823.43,220.21,823.43c186.51,95.12,270.27-78.8,270.27-78.8C586.85,559.36,476.64,428,476.64,428Z"/><path class="cls-3" d="M410.22,772.48c.18-2.52,4.2-69.59-86.92-143.73,0,0-87.53,69.46-87.53,143.81v-.28c-.39,2.76,0,5.84,0,8.68,0,39.34,39.19,71.22,87.53,71.22S410,820.35,410,781C410,778.15,410.62,775.26,410.22,772.48Z"/></svg>