<svg id="Layer_1" data-name="Layer 1" xmlns="http://www.w3.org/2000/svg" viewBox="0 0 338 345"><defs><style>.cls-1{fill:#fff;}</style></defs><path class="cls-1" d="M51.3,110A51.4,51.4,0,0,0,0,161.5v22A51.4,51.4,0,0,0,51.3,235H88V110Z"/><path class="cls-1" d="M287.33,110H252V235h35.33c28,0,50.67-23.06,50.67-51.5v-22C338,133.06,315.31,110,287.33,110Z"/><path class="cls-1" d="M161.12,111.72a9.39,9.39,0,0,0,15.76,0A38,38,0,0,1,209,94h42s-15,0-15-39.2A54.79,54.79,0,0,0,181.2,0H157.8A54.79,54.79,0,0,0,103,54.8C103,94,88,94,88,94h41A38,38,0,0,1,161.12,111.72Z"/><path class="cls-1" d="M209,251a38,38,0,0,1-32.14-17.72A9.31,9.31,0,0,0,169,229h0a9.31,9.31,0,0,0-7.88,4.28A38,38,0,0,1,129,251H88.28s15,0,15,39.2A54.79,54.79,0,0,0,158.07,345h23.41a54.8,54.8,0,0,0,54.8-54.8c0-39.2,15-39.2,15-39.2Z"/><path class="cls-1" d="M213.38,110a42.18,42.18,0,0,0-35.69,19.67,10.41,10.41,0,0,1-17.49,0A42.18,42.18,0,0,0,124.51,110H103V234.8h21.45A42.4,42.4,0,0,0,160.34,215a10.39,10.39,0,0,1,8.79-4.78h0a10.41,10.41,0,0,1,8.8,4.78,42.39,42.39,0,0,0,35.88,19.78H236V110Zm-44.5,96c-12.84-.07-22.76-11.29-22.12-24.12,1-20.07,18-37.76,21.6-41.23a.88.88,0,0,1,1.27,0c3.63,3.68,21.66,23,21.66,43.05A22.29,22.29,0,0,1,168.88,206Z"/></svg>