<svg id="Layer_1" data-name="Layer 1" xmlns="http://www.w3.org/2000/svg" viewBox="0 0 339.78 285.17"><defs><style>.cls-1{fill:#7faef5;}</style></defs><rect class="cls-1" y="259.38" width="339.78" height="25.79" rx="8.42"/><path class="cls-1" d="M183.54,109.88V86.46a22.75,22.75,0,1,0-27.3,0v23.42A139.56,139.56,0,0,0,30.34,248.77h279.1A139.56,139.56,0,0,0,183.54,109.88Zm-26.39,41.68c-62.66,9.34-78,63.69-78.66,66a11.37,11.37,0,0,1-22-5.81c.75-2.89,19.48-71.1,97.3-82.69a11.37,11.37,0,1,1,3.35,22.5Z"/><path class="cls-1" d="M304.13,45.59a49.64,49.64,0,0,0-5.54,11.2,41.56,41.56,0,0,0-2.2,10.51c0,.87-.08,1.71-.15,2.55s.07,1.7.09,2.54a15.36,15.36,0,0,0,.19,2.52c.12.84.12,1.67.28,2.51s.33,1.68.48,2.51c.08.42.11.83.21,1.25l.36,1.26c.24.84.43,1.68.64,2.52l.73,3.13a42.48,42.48,0,0,1-2.16,26A46.67,46.67,0,0,1,289.9,126c-.8.91-1.6,1.82-2.43,2.7s-1.75,1.74-2.72,2.56a35,35,0,0,1-6.41,4.54c.38-4.33.73-8.3.89-12.21s.24-7.67.11-11.37-.39-7.31-.74-10.87c-.32-1.77-.37-3.55-.79-5.31l-.44-2.63c-.16-.88-.41-1.75-.6-2.62L276.21,88l-.6-3.38-.26-1.68c-.07-.57-.06-1.15-.08-1.72,0-1.15,0-2.29,0-3.43A32.36,32.36,0,0,1,279,64.27,36.93,36.93,0,0,1,289,52.74a34.81,34.81,0,0,1,3.35-2.31,35.53,35.53,0,0,1,3.65-2A33.08,33.08,0,0,1,304.13,45.59Z"/><path class="cls-1" d="M261.87,0a49.84,49.84,0,0,0-5.54,11.2,41.54,41.54,0,0,0-2.2,10.52c0,.86-.09,1.71-.15,2.54s.07,1.71.09,2.54a15.28,15.28,0,0,0,.19,2.52c.12.85.12,1.67.28,2.51s.33,1.68.47,2.51c.09.42.12.84.22,1.26l.36,1.25c.23.84.43,1.68.63,2.52L257,42.5a42.48,42.48,0,0,1-2.16,26,46.67,46.67,0,0,1-7.16,11.85c-.8.91-1.6,1.82-2.43,2.7s-1.75,1.74-2.72,2.57a34.8,34.8,0,0,1-6.41,4.53c.38-4.33.72-8.29.88-12.21s.24-7.67.12-11.37-.39-7.3-.74-10.86c-.32-1.78-.38-3.56-.79-5.31l-.44-2.64c-.16-.88-.41-1.75-.6-2.62L234,42.41l-.6-3.37-.26-1.69a16.5,16.5,0,0,1-.08-1.72c0-1.15,0-2.29,0-3.43a32.36,32.36,0,0,1,3.79-13.52,36.93,36.93,0,0,1,9.93-11.53,35.38,35.38,0,0,1,3.35-2.31,36.45,36.45,0,0,1,3.64-2A33.3,33.3,0,0,1,261.87,0Z"/></svg>