<svg id="Layer_1" data-name="Layer 1" xmlns="http://www.w3.org/2000/svg" viewBox="0 0 300 280"><defs><style>.cls-1{fill:#86eace;}</style></defs><path class="cls-1" d="M154.92,121.22H137.13c-2.52,0-4.56-2.34-4.56-5.24V92c0-2.89,2-5.24,4.56-5.24h75.56c2.52,0,4.56-2.34,4.56-5.23V43.33c0-2.89-2-5.24-4.56-5.24H86.56C84,38.09,82,40.44,82,43.33V252.5c0,2.89,2,5.23,4.56,5.23h69.53c39.41,0,73.51-18.92,73.51-71C229.6,136.76,194.91,121.22,154.92,121.22ZM161.8,158c13,0,25.11,2.22,34.33,6,4.45,2.22,6.67,6.67,5.72,10.81a10.36,10.36,0,0,1-10.49,8.26h-4.13a22.46,22.46,0,0,0-14.3,5.08c-6.68,5.41-13,9.22-19.71,11.45a35.71,35.71,0,0,1-12.71,2.22,33.69,33.69,0,0,1-9.86-1.27c-10.8-3.18-17.48-10.81-17.48-20.34C113.17,167.54,134.15,158,161.8,158Zm40.69,34.82c0,.32-.32.64-.32,1a10.77,10.77,0,0,1-10.81,8.58h-4.13a22.46,22.46,0,0,0-14.3,5.08c-6.68,5.41-13,9.22-19.71,11.45a35.71,35.71,0,0,1-12.71,2.22,33.69,33.69,0,0,1-9.86-1.27c-10.8-3.18-17.48-10.81-17.48-20.34v-5.41A32.47,32.47,0,0,0,129.06,204a45.4,45.4,0,0,0,11.45,1.59A47.21,47.21,0,0,0,155.13,203a71.1,71.1,0,0,0,21.93-12.71,15.8,15.8,0,0,1,10.17-3.5h4.13a16.16,16.16,0,0,0,11.13-4.13Z"/><path class="cls-1" d="M143.37,189.78c8.26,0,14.3-4.13,14.3-9.53s-6-9.54-14.3-9.54-14.31,4.14-14.31,9.54S135.1,189.78,143.37,189.78Zm0-14.28c4.39,0,7.94,2.12,7.94,4.75s-3.55,4.75-7.94,4.75-8-2.13-8-4.75S139,175.5,143.37,175.5Z"/></svg>