<svg id="Layer_1" data-name="Layer 1" xmlns="http://www.w3.org/2000/svg" viewBox="0 0 164 165"><defs><style>.cls-1{fill:#c4615f;}.cls-2{fill:#ff857c;}</style></defs><polygon class="cls-1" points="132.27 49 121.13 40.06 110 49 110 15.59 132.27 15.59 132.27 49"/><path class="cls-1" d="M127,72.87c0-10.34-9-18.75-20-18.75-.57,0-1.13,0-1.69.08-2.44-10.26-12.21-18-23.87-18s-21.66,7.87-24,18.31a20.74,20.74,0,0,0-2.09-.11c-11,0-20,8.41-20,18.75,0,9.54,7.63,17.42,17.46,18.58v28.08c0,5.09,4,6.91,8.14,8.33a66.12,66.12,0,0,0,20.68,3.76,55.6,55.6,0,0,0,20.81-3.81c3.76-1.5,8-3.21,8-8.28V91.31C119.88,89.75,127,82.08,127,72.87Z"/><path class="cls-2" d="M123.47,70.22c0-9.94-8.61-18-19.2-18-.55,0-1.09,0-1.62.07C100.29,42.4,90.9,35,79.7,35S58.87,42.57,56.65,52.61a19,19,0,0,0-2-.11c-10.59,0-19.2,8.08-19.2,18,0,9.18,7.34,16.75,16.79,17.87v27c0,4.89,3.86,6.64,7.82,8A63.48,63.48,0,0,0,79.94,127a53.45,53.45,0,0,0,20-3.67c3.62-1.44,7.71-3.09,7.71-8V88C116.62,86.45,123.47,79.08,123.47,70.22Z"/><path class="cls-1" d="M145.78.28H18.66A18.49,18.49,0,0,0,.22,18.83V146.72a18.5,18.5,0,0,0,18.44,18.56H145.78a18.5,18.5,0,0,0,18.44-18.56V18.83A18.49,18.49,0,0,0,145.78.28Zm-2.3,134.63A9.47,9.47,0,0,1,134,144.4H30.41A9.47,9.47,0,0,1,21,134.91V30.65a9.47,9.47,0,0,1,9.44-9.5H134a9.47,9.47,0,0,1,9.45,9.5Z"/><polygon class="cls-2" points="130.38 46 120.2 38.08 110.01 46 110.01 16.41 130.38 16.41 130.38 46"/><path class="cls-2" d="M143.12.28H18.33A18.1,18.1,0,0,0,.22,18.38V143.17a18.11,18.11,0,0,0,18.11,18.11H143.12a18.1,18.1,0,0,0,18.1-18.11V18.38A18.1,18.1,0,0,0,143.12.28Zm-2.27,131.36a9.26,9.26,0,0,1-9.26,9.27H29.86a9.27,9.27,0,0,1-9.27-9.27V29.91a9.26,9.26,0,0,1,9.27-9.26H131.59a9.25,9.25,0,0,1,9.26,9.26Z"/></svg>