<svg id="Layer_1" data-name="Layer 1" xmlns="http://www.w3.org/2000/svg" viewBox="0 0 65 72.35"><defs><style>.cls-1{fill:#ff857c;}.cls-2{fill:#c4615f;}</style></defs><circle class="cls-1" cx="50.83" cy="27.7" r="12.4"/><path class="cls-2" d="M50.83,41.87A14.18,14.18,0,1,1,65,27.7,14.19,14.19,0,0,1,50.83,41.87Zm0-24.79A10.62,10.62,0,1,0,61.44,27.7,10.63,10.63,0,0,0,50.83,17.08Z"/><path class="cls-1" d="M51.54,34.85V63.21c0,2.56-1.84,3.45-4.64,4.64a35.73,35.73,0,0,1-14,2.72,43.07,43.07,0,0,1-14-2.72c-2.92-1.07-4.64-2.08-4.64-4.64V25.75a4.64,4.64,0,0,1,4.64-4.64h25"/><path class="cls-2" d="M32.86,72.35a44.38,44.38,0,0,1-14.68-2.84c-2.93-1.07-5.78-2.45-5.78-6.3V25.75a6.42,6.42,0,0,1,6.41-6.42h25a1.78,1.78,0,1,1,0,3.56h-25A2.86,2.86,0,0,0,16,25.75V63.21c0,1.15.35,1.82,3.47,3l0,0a41.74,41.74,0,0,0,13.39,2.6,34.36,34.36,0,0,0,13.28-2.56l.07,0c2.95-1.25,3.55-1.76,3.55-3V34.85a1.78,1.78,0,0,1,3.56,0V63.21c0,3.83-3,5.13-5.69,6.26A37.43,37.43,0,0,1,32.86,72.35Z"/><path class="cls-1" d="M22.24,37.34A12.39,12.39,0,1,1,21.6,18"/><path class="cls-2" d="M14.17,42.11a14.18,14.18,0,1,1,8.5-25.52,1.78,1.78,0,1,1-2.13,2.84A10.62,10.62,0,1,0,21.08,36a1.78,1.78,0,0,1,2.32,2.7A14.12,14.12,0,0,1,14.17,42.11Z"/><path class="cls-1" d="M19.23,25.29a15.6,15.6,0,1,1,15.41,7.56"/><path class="cls-2" d="M34.63,34.63a1.78,1.78,0,0,1-.22-3.54,13.82,13.82,0,1,0-13.64-6.7A1.78,1.78,0,0,1,17.7,26.2a17.38,17.38,0,1,1,17.16,8.42Z"/></svg>