<svg id="Layer_1" data-name="Layer 1" xmlns="http://www.w3.org/2000/svg" viewBox="0 0 161 161"><defs><style>.cls-1{fill:#ff857c;}</style></defs><path class="cls-1" d="M123.25,69.94c0-9.94-8.62-18-19.2-18-.55,0-1.09,0-1.63.08-2.35-9.87-11.74-17.28-23-17.28s-20.82,7.57-23,17.61a19.38,19.38,0,0,0-2-.11c-10.58,0-19.19,8.09-19.19,18C35.22,79.42,42.56,87,52,88.11v27c0,4.89,3.87,6.64,7.83,8a63.46,63.46,0,0,0,19.88,3.62,53.53,53.53,0,0,0,20-3.67c3.62-1.44,7.7-3.08,7.7-8V87.67C116.4,86.17,123.25,78.8,123.25,69.94Z"/><path class="cls-1" d="M142.9,0H18.1A18.11,18.11,0,0,0,0,18.1V142.9A18.11,18.11,0,0,0,18.1,161H142.9A18.11,18.11,0,0,0,161,142.9V18.1A18.11,18.11,0,0,0,142.9,0Zm-2.27,131.36a9.27,9.27,0,0,1-9.27,9.27H29.64a9.27,9.27,0,0,1-9.27-9.27V29.64a9.27,9.27,0,0,1,9.27-9.27h80.15V45.72L120,37.8l10.19,7.92V20.37h1.2a9.27,9.27,0,0,1,9.27,9.27Z"/></svg>