<svg id="Layer_1" data-name="Layer 1" xmlns="http://www.w3.org/2000/svg" viewBox="0 0 291.33 306.55"><defs><style>.cls-1{fill:#7faef5;}</style></defs><path class="cls-1" d="M284.74,117.42c0,1,.05,2.06.05,3.09A105.3,105.3,0,1,1,164,16.36a147.4,147.4,0,0,0-18.3-1.14,145.49,145.49,0,1,0,139.07,102.2Z"/><path class="cls-1" d="M144.67,168.89a2.53,2.53,0,0,1,.45-1.44l46.35-67.79v-.38H151.23a2.55,2.55,0,0,1-2.55-2.56v-4a2.55,2.55,0,0,1,2.55-2.56h51.82a2.56,2.56,0,0,1,2.56,2.56V96a2.56,2.56,0,0,1-.45,1.44L159.06,165v.38h44.61a2.55,2.55,0,0,1,2.56,2.55v4a2.56,2.56,0,0,1-2.56,2.56H147.23a2.56,2.56,0,0,1-2.56-2.56Z"/><path class="cls-1" d="M222.36,101.48a1.06,1.06,0,0,1,.17-.57l27.9-40.8v-.22H225.76a1,1,0,0,1-1-1V55.41a1,1,0,0,1,1-1h32.15a1,1,0,0,1,1,1v2.66a1,1,0,0,1-.17.57L231,99.3v.22h27.29a1,1,0,0,1,1,1V104a1,1,0,0,1-1,1H223.36a1,1,0,0,1-1-1Z"/><path class="cls-1" d="M200,31.48a1,1,0,0,1,.18-.56L218.71,3.8V3.65H202.6a1,1,0,0,1-1-1V1a1,1,0,0,1,1-1h20.76a1,1,0,0,1,1,1V2.34a1.06,1.06,0,0,1-.17.57l-18.44,27v.15h17.86a1,1,0,0,1,1,1v1.64a1,1,0,0,1-1,1H201a1,1,0,0,1-1-1Z"/></svg>