<svg id="Layer_1" data-name="Layer 1" xmlns="http://www.w3.org/2000/svg" viewBox="0 0 38.92 37.15"><defs><style>.cls-1{fill:#9985ed;}</style></defs><path class="cls-1" d="M20.61.62l6,9.12a1.36,1.36,0,0,0,.78.57l10.53,2.88a1.37,1.37,0,0,1,.71,2.18L31.8,23.89a1.34,1.34,0,0,0-.3.92L32,35.71a1.37,1.37,0,0,1-1.86,1.35L20,33.2a1.35,1.35,0,0,0-1,0L8.77,37.06a1.37,1.37,0,0,1-1.86-1.35l.52-10.9a1.45,1.45,0,0,0-.3-.92L.3,15.37A1.37,1.37,0,0,1,1,13.19l10.53-2.88a1.36,1.36,0,0,0,.78-.57l6-9.12A1.37,1.37,0,0,1,20.61.62Z"/></svg>