<svg id="Layer_1" data-name="Layer 1" xmlns="http://www.w3.org/2000/svg" viewBox="0 0 270.26 375"><defs><style>.cls-1{fill:#c4615f;}.cls-2{fill:#ff857c;}</style></defs><path class="cls-1" d="M270,241.23c.29-4.22,6.51-116.8-134.4-241.23C135.64,0,.27,116.58.27,241.36v-.46c-.61,4.62,0,9.79,0,14.57C.27,321.48,60.88,375,135.64,375s134.09-53.43,134.09-119.44C269.73,250.74,270.67,245.9,270,241.23Z"/><path class="cls-2" d="M252.12,239.1c.25-3.64,5.6-100.68-115.85-207.93,0,0-116.68,100.49-116.68,208v-.4c-.53,4,0,8.45,0,12.56,0,56.9,52.24,103,116.68,103s115.58-46,115.58-102.95C251.85,247.29,252.66,243.12,252.12,239.1Z"/><rect class="cls-1" x="41.17" y="239.58" width="59.9" height="59.9" rx="3.11"/><path class="cls-1" d="M137.85,273.65l-31.77,24.17a1.12,1.12,0,0,1-1.81-.89V239.85a1.11,1.11,0,0,1,.44-.89l31.78-24.17a1.12,1.12,0,0,1,1.8.89v57.08A1.11,1.11,0,0,1,137.85,273.65Z"/><path class="cls-1" d="M100.78,236.09h-57a.86.86,0,0,1-.52-1.55L75,210.39a.88.88,0,0,1,.52-.18h57a.87.87,0,0,1,.52,1.56L101.3,235.92A.87.87,0,0,1,100.78,236.09Z"/><rect class="cls-2" x="75.48" y="212.25" width="27.33" height="3.37" rx="1.06"/><rect class="cls-2" x="105.14" y="212.25" width="11.05" height="3.37" rx="1.06"/><rect class="cls-2" x="118.4" y="212.37" width="5.93" height="3.37" rx="1.06"/><rect class="cls-1" x="143.92" y="211.73" width="59.9" height="59.9" rx="3.11"/><path class="cls-1" d="M240.6,245.8,208.83,270a1.13,1.13,0,0,1-1.81-.9V212a1.15,1.15,0,0,1,.45-.9l31.77-24.17a1.13,1.13,0,0,1,1.81.9v57.08A1.12,1.12,0,0,1,240.6,245.8Z"/><path class="cls-1" d="M203.53,208.24h-57a.87.87,0,0,1-.53-1.56l31.74-24.14a.85.85,0,0,1,.53-.18h57a.87.87,0,0,1,.53,1.56l-31.74,24.14A.85.85,0,0,1,203.53,208.24Z"/><rect class="cls-2" x="178.24" y="184.4" width="27.33" height="3.37" rx="1.06"/><rect class="cls-2" x="207.9" y="184.4" width="11.05" height="3.37" rx="1.06"/><rect class="cls-2" x="221.16" y="184.51" width="5.93" height="3.37" rx="1.06"/><rect class="cls-1" x="77.37" y="145.18" width="59.9" height="59.9" rx="3.11"/><path class="cls-1" d="M174.06,179.25l-31.78,24.17a1.12,1.12,0,0,1-1.8-.89V145.45a1.14,1.14,0,0,1,.44-.9l31.77-24.16a1.12,1.12,0,0,1,1.81.89v57.08A1.11,1.11,0,0,1,174.06,179.25Z"/><path class="cls-1" d="M137,141.69H80a.87.87,0,0,1-.53-1.56L111.16,116a.87.87,0,0,1,.53-.18h57a.87.87,0,0,1,.52,1.56l-31.74,24.15A.87.87,0,0,1,137,141.69Z"/><rect class="cls-2" x="111.69" y="117.85" width="27.33" height="3.37" rx="1.06"/><rect class="cls-2" x="141.35" y="117.85" width="11.05" height="3.37" rx="1.06"/><rect class="cls-2" x="154.61" y="117.96" width="5.93" height="3.37" rx="1.06"/></svg>