<svg id="Layer_1" data-name="Layer 1" xmlns="http://www.w3.org/2000/svg" viewBox="0 0 270.26 375"><defs><style>.cls-1{fill:#7faef5;}</style></defs><path class="cls-1" d="M270,241.23c.29-4.22,6.51-116.8-134.4-241.23C135.64,0,.27,116.58.27,241.36v-.46c-.61,4.62,0,9.79,0,14.57C.27,321.48,60.88,375,135.64,375s134.09-53.43,134.09-119.44C269.73,250.74,270.67,245.9,270,241.23Zm-18.19,10.22c0,56.9-51.14,103-115.58,103s-116.68-46.13-116.68-103c0-4.12-.53-8.57,0-12.56v.4c0-107.55,116.68-208,116.68-208C257.72,138.42,252.37,235.46,252.12,239.1,252.66,243.12,251.85,247.29,251.85,251.45Z"/><rect class="cls-1" x="41.17" y="239.58" width="59.9" height="59.9" rx="3.11"/><path class="cls-1" d="M137.85,273.65l-31.77,24.17a1.12,1.12,0,0,1-1.81-.89V239.85a1.11,1.11,0,0,1,.44-.89l31.78-24.17a1.12,1.12,0,0,1,1.8.89v57.08A1.11,1.11,0,0,1,137.85,273.65Z"/><path class="cls-1" d="M132.52,210.21h-57a.88.88,0,0,0-.52.18L43.22,234.54a.86.86,0,0,0,.52,1.55h57a.87.87,0,0,0,.52-.17L133,211.77A.87.87,0,0,0,132.52,210.21Zm-29.7,4.35a1.06,1.06,0,0,1-1.07,1.06H76.55a1.06,1.06,0,0,1-1.07-1.06v-1.25a1.07,1.07,0,0,1,1.07-1.06h25.2a1.07,1.07,0,0,1,1.07,1.06Zm13.37,0a1.05,1.05,0,0,1-1.06,1.06h-8.92a1.06,1.06,0,0,1-1.07-1.06v-1.25a1.07,1.07,0,0,1,1.07-1.06h8.92a1.06,1.06,0,0,1,1.06,1.06Zm8.14.11a1.06,1.06,0,0,1-1.06,1.07h-3.81a1.07,1.07,0,0,1-1.06-1.07v-1.24a1.06,1.06,0,0,1,1.06-1.06h3.81a1.05,1.05,0,0,1,1.06,1.06Z"/><rect class="cls-1" x="143.92" y="211.73" width="59.9" height="59.9" rx="3.11"/><path class="cls-1" d="M240.6,245.8,208.83,270a1.13,1.13,0,0,1-1.81-.9V212a1.15,1.15,0,0,1,.45-.9l31.77-24.17a1.13,1.13,0,0,1,1.81.9v57.08A1.12,1.12,0,0,1,240.6,245.8Z"/><path class="cls-1" d="M235.27,182.36h-57a.85.85,0,0,0-.53.18L146,206.68a.87.87,0,0,0,.53,1.56h57a.85.85,0,0,0,.53-.18l31.74-24.14A.87.87,0,0,0,235.27,182.36Zm-29.7,4.35a1.07,1.07,0,0,1-1.06,1.06H179.3a1.06,1.06,0,0,1-1.06-1.06v-1.25a1.05,1.05,0,0,1,1.06-1.06h25.21a1.06,1.06,0,0,1,1.06,1.06Zm13.38,0a1.07,1.07,0,0,1-1.07,1.06H209a1.06,1.06,0,0,1-1.06-1.06v-1.25A1.05,1.05,0,0,1,209,184.4h8.92a1.06,1.06,0,0,1,1.07,1.06Zm8.14.11a1.07,1.07,0,0,1-1.06,1.07h-3.81a1.06,1.06,0,0,1-1.06-1.07v-1.24a1.06,1.06,0,0,1,1.06-1.07H226a1.07,1.07,0,0,1,1.06,1.07Z"/><rect class="cls-1" x="77.37" y="145.18" width="59.9" height="59.9" rx="3.11"/><path class="cls-1" d="M174.06,179.25l-31.78,24.17a1.12,1.12,0,0,1-1.8-.89V145.45a1.14,1.14,0,0,1,.44-.9l31.77-24.16a1.12,1.12,0,0,1,1.81.89v57.08A1.11,1.11,0,0,1,174.06,179.25Z"/><path class="cls-1" d="M168.73,115.81h-57a.87.87,0,0,0-.53.18L79.42,140.13a.87.87,0,0,0,.53,1.56h57a.87.87,0,0,0,.52-.17l31.74-24.15A.87.87,0,0,0,168.73,115.81ZM139,120.16a1.06,1.06,0,0,1-1.06,1.06H112.75a1.06,1.06,0,0,1-1.06-1.06v-1.25a1.05,1.05,0,0,1,1.06-1.06H138a1.05,1.05,0,0,1,1.06,1.06Zm13.38,0a1.07,1.07,0,0,1-1.07,1.06h-8.92a1.07,1.07,0,0,1-1.06-1.06v-1.25a1.06,1.06,0,0,1,1.06-1.06h8.92a1.06,1.06,0,0,1,1.07,1.06Zm8.14.11a1.07,1.07,0,0,1-1.06,1.07h-3.81a1.06,1.06,0,0,1-1.06-1.07V119a1.06,1.06,0,0,1,1.06-1.07h3.81a1.07,1.07,0,0,1,1.06,1.07Z"/></svg>