<svg id="Layer_1" data-name="Layer 1" xmlns="http://www.w3.org/2000/svg" viewBox="0 0 401.5 401.5"><defs><style>.cls-1{fill:#7faef5;}</style></defs><path class="cls-1" d="M251.25,200.08A84,84,0,1,1,201,149.89l18.63-18.63a108.53,108.53,0,1,0,50.27,50.2Z"/><path class="cls-1" d="M288.38,163A133.52,133.52,0,1,1,238,112.83L266.27,84.6a172.38,172.38,0,1,0,50.31,50.15Z"/><path class="cls-1" d="M354,66.47l13.91-13.91a8.07,8.07,0,0,0,0-11.41l-8-8a8,8,0,0,0-11.22,0L335.06,46.82l2-46.82L287.28,49.77,286,80.43l-97.13,97.13a54.15,54.15,0,1,0,35.1,35.1l97.13-97.13,30.66-1.31L401.5,64.45Z"/></svg>