<svg id="Layer_1" data-name="Layer 1" xmlns="http://www.w3.org/2000/svg" viewBox="0 0 364.12 288.19"><defs><style>.cls-1{fill:#7faef5;}</style></defs><path class="cls-1" d="M70,234.33a70,70,0,0,0,70-70H0A70,70,0,0,0,70,234.33Z"/><path class="cls-1" d="M294.1,234.33a70,70,0,0,0,70-70h-140A70,70,0,0,0,294.1,234.33Z"/><path class="cls-1" d="M252.59,264.34H195.33V66.64A34.84,34.84,0,0,0,214,48h66.72l-56.6,110h140L294.29,22.3v-1H214a34.66,34.66,0,0,0-64,0H69.64v1.36L0,158H140L83.45,48H150a34.84,34.84,0,0,0,18.63,18.62v197.7H112.13A15.18,15.18,0,0,0,97,279.52v8.67H267.77v-8.67A15.18,15.18,0,0,0,252.59,264.34ZM245.52,145,294.1,50.52,342.68,145ZM21.44,145,70,50.52,118.6,145ZM182,17a17.66,17.66,0,1,1-17.66,17.66A17.69,17.69,0,0,1,182,17Z"/></svg>