<svg id="Layer_1" data-name="Layer 1" xmlns="http://www.w3.org/2000/svg" viewBox="0 0 364.12 288.19"><defs><style>.cls-1{fill:#cacc69;}.cls-2{fill:none;stroke:#cacc69;stroke-miterlimit:10;stroke-width:17px;}</style></defs><path class="cls-1" d="M70,234.33a70,70,0,0,0,70-70H0A70,70,0,0,0,70,234.33Z"/><path class="cls-1" d="M70,50.52,118.6,145H21.44L70,50.52m0-28.6L0,158H140L70,21.92Z"/><circle class="cls-2" cx="181.97" cy="34.66" r="26.16"/><rect class="cls-1" x="69.64" y="21.31" width="84.28" height="26.71"/><rect class="cls-1" x="210.01" y="21.29" width="84.28" height="26.71"/><path class="cls-1" d="M294.1,234.33a70,70,0,0,0,70-70h-140A70,70,0,0,0,294.1,234.33Z"/><path class="cls-1" d="M294.1,50.52,342.68,145H245.52L294.1,50.52m0-28.6L224.08,158h140l-70-136.11Z"/><rect class="cls-1" x="168.62" y="60.82" width="26.71" height="203.86"/><path class="cls-1" d="M112.13,264.34H252.59a15.18,15.18,0,0,1,15.18,15.18v8.67a0,0,0,0,1,0,0H97a0,0,0,0,1,0,0v-8.67A15.18,15.18,0,0,1,112.13,264.34Z"/></svg>