<svg id="Layer_1" data-name="Layer 1" xmlns="http://www.w3.org/2000/svg" viewBox="0 0 350 178.11"><defs><style>.cls-1{fill:#67ce91;}.cls-2{fill:#86eace;}</style></defs><rect class="cls-1" x="218.58" width="59.76" height="178.04" rx="10.63"/><rect class="cls-1" x="278.34" y="26.15" width="44.82" height="125.75" rx="10.35"/><rect class="cls-2" x="231.03" y="12.45" width="34.86" height="153.14" rx="4.72"/><rect class="cls-2" x="287.86" y="37.35" width="25.78" height="103.34" rx="4.62"/><rect class="cls-1" x="131.42" y="70.97" width="87.15" height="36.11"/><rect class="cls-1" x="72.21" y="0.07" width="59.76" height="178.04" rx="10.63" transform="translate(204.19 178.18) rotate(180)"/><rect class="cls-1" x="27.39" y="26.22" width="44.82" height="125.75" rx="10.35" transform="translate(99.6 178.18) rotate(180)"/><path class="cls-1" d="M0,71H17A10.36,10.36,0,0,1,27.39,81.4V96.78A10.36,10.36,0,0,1,17,107.14H0a0,0,0,0,1,0,0V71A0,0,0,0,1,0,71Z" transform="translate(27.39 178.18) rotate(-180)"/><rect class="cls-2" x="84.66" y="12.52" width="34.86" height="153.14" rx="4.72" transform="translate(204.19 178.18) rotate(180)"/><rect class="cls-2" x="36.91" y="37.42" width="25.78" height="103.34" rx="4.62" transform="translate(99.6 178.18) rotate(180)"/><path class="cls-2" d="M8.16,78.44h13a6.2,6.2,0,0,1,6.2,6.2v8.9a6.2,6.2,0,0,1-6.2,6.2h-13a0,0,0,0,1,0,0V78.44A0,0,0,0,1,8.16,78.44Z" transform="translate(35.55 178.18) rotate(180)"/><path class="cls-1" d="M322.61,71.18h17A10.36,10.36,0,0,1,350,81.54V96.92a10.36,10.36,0,0,1-10.36,10.36h-17a0,0,0,0,1,0,0V71.18a0,0,0,0,1,0,0Z"/><path class="cls-2" d="M322.61,78.58h13a6.2,6.2,0,0,1,6.2,6.2v8.9a6.2,6.2,0,0,1-6.2,6.2h-13a0,0,0,0,1,0,0V78.58a0,0,0,0,1,0,0Z"/></svg>