<svg id="Layer_1" data-name="Layer 1" xmlns="http://www.w3.org/2000/svg" viewBox="0 0 292.62 254.01"><defs><style>.cls-1{fill:#ff857c;}.cls-2{fill:#7faef5;}</style></defs><path class="cls-1" d="M288.26,77.63q0,1,0,2a69.61,69.61,0,1,1-79.87-68.86,98.77,98.77,0,0,0-12.1-.75,96.2,96.2,0,1,0,91.94,67.57Z"/><path class="cls-1" d="M195.66,111.66a1.72,1.72,0,0,1,.29-1L226.6,65.89v-.25H200A1.69,1.69,0,0,1,198.31,64V61.29A1.69,1.69,0,0,1,200,59.6h34.25a1.69,1.69,0,0,1,1.69,1.69v2.17a1.69,1.69,0,0,1-.29.95l-30.48,44.66v.24h29.49a1.7,1.7,0,0,1,1.7,1.7v2.65a1.7,1.7,0,0,1-1.7,1.69H197.35a1.69,1.69,0,0,1-1.69-1.69Z"/><path class="cls-1" d="M247,67.09a.7.7,0,0,1,.11-.37l18.45-27v-.15H249.27a.67.67,0,0,1-.67-.66v-2.3a.67.67,0,0,1,.67-.66h21.25a.66.66,0,0,1,.66.66v1.76a.7.7,0,0,1-.11.38L252.72,65.65v.15h18a.66.66,0,0,1,.66.66v2.29a.67.67,0,0,1-.66.67H247.68a.66.66,0,0,1-.66-.67Z"/><path class="cls-1" d="M232.23,20.81a.63.63,0,0,1,.12-.37L244.61,2.51v-.1H234a.66.66,0,0,1-.67-.66V.67A.67.67,0,0,1,234,0h13.72a.66.66,0,0,1,.66.67v.88a.7.7,0,0,1-.11.37L236,19.78v.1h11.8a.67.67,0,0,1,.67.67v1.08a.67.67,0,0,1-.67.67H232.9a.67.67,0,0,1-.67-.67Z"/><path class="cls-2" d="M284,212.66c1.54-4.64-.66-17.17-38.44-35.46l-4-1.94c-11.61-5.62-23.26-14.56-21.8-22.12a3.74,3.74,0,0,0-.72-4.21,10.26,10.26,0,0,0-4.27-3.71,14.65,14.65,0,0,0-4.45-1.06l-2.27-4.4c.39-4.22-.13-10-5.49-12.58a8.43,8.43,0,0,0-5.11-.82l-1.37-2.86c.39-4.22-1.22-8.86-5.68-11a8.62,8.62,0,0,0-3.35-1.07c-.9-1.54-2.49-4-2.73-5.73.17-3.77-1.21-7.75-4.78-9.47a8,8,0,0,0-4.67-.61c-1.12-1.09-3.37-3.28-4.56-9.92-1.21-7.75-7.53-16.32-14.23-19.56a14.18,14.18,0,0,0-12-.29c-3.75,2-6.8,6.08-8.93,12.76-3.31,1.15-11.94,3-25.33-3.45-1.79-.86-3.8-2.39-5.59-3.25-2.46-1.74-9-7.65-10.15-13.18C92.88,52.07,85,45.52,79,42.05a18,18,0,0,0-13.77-1.16,13.22,13.22,0,0,0-7,7.64c-1.7,5.79-3.22,7.8-3.88,8-.45-.21-.67.23-1.33.46-1.32.46-25.13,12.43-30.9,39.74a19,19,0,0,0-9.76,6.7c-2.17,3.36-3,7.36-2.94,12.91-3.51,2.7-9,7.21-9.34,14.76-1,10,7.58,20.75,25.92,31.83.67.88,2.23,1.08,3.55.62,1.54-.91,6.2-1.41,9.32.1.89.43,3.57,1.73,3,8.61a5,5,0,0,0,3.62,5.06c1.55.2,31.41,10.24,54.92,10.6,0,0,7.34.79,12.69,3.38,2.23,1.08,3.8,2.4,4,3.06,1.65,6.85,13.63,24.22,26.57,30.49,7.59,3.67,14.68,2.69,21.52-.06a5.23,5.23,0,0,1,3.18,6c-.2,1.56-.19,2.66.94,3.76a37,37,0,0,0,11.2,8.73,21.25,21.25,0,0,0,21.5-1.17l2.66.19c2,2.64,5.2,7.47,10.56,10.07,3.57,1.73,10.92,3.63,19-2.91l5.31-.73,3.13,1.51c.44.21,1.11,0,1.55.2.9.43,19.53.64,31.14-10.83,6.35-6.29,9.12-15.42,8.76-26.06A6.09,6.09,0,0,0,284,212.66Zm-57.48-4.84c2.09,0,4.17-.07,6.26-.19a118.19,118.19,0,0,0,12.45-1.38c2.46-.4,8.9-.63,9.31-4,.2-1.65-1.31-3.63-2.17-4.93a34.76,34.76,0,0,0-3.37-4.27c-2.81-3.07-6.16-5.64-8.89-8.77.19.22,1.4-.17,1.67-.19a5.34,5.34,0,0,1,2.09.38A78.54,78.54,0,0,1,254,189c2.56,1.26,5.12,2.54,7.59,4a46.89,46.89,0,0,1,6.32,4.3c1.51,1.24,3.54,2.88,3.55,5,0,3.78-4.48,5.91-7.46,7a53.1,53.1,0,0,1-11,2.64,54.62,54.62,0,0,1-16.44-.48,108.1,108.1,0,0,1-15.41-3.61A29.4,29.4,0,0,0,226.52,207.82ZM191,133.42c4-1.38,7.8-.82,8.52,1.25s-1.92,4.88-5.91,6.27-7.8.82-8.52-1.25S187,134.81,191,133.42Zm-11-14.84c4-1.39,7.8-.83,8.52,1.25s-1.92,4.88-5.9,6.26-7.8.83-8.52-1.25S176,120,180,118.58Zm-12.86-16.16c4-1.38,7.8-.82,8.52,1.25s-1.92,4.88-5.91,6.27-7.8.82-8.52-1.25S163.13,103.81,167.12,102.42ZM88.3,64.25c.65,1.15,15.59,26.9,48.21,22a4.39,4.39,0,1,1,1.31,8.69,63.07,63.07,0,0,1-9.37.72c-32.37,0-47.66-26.79-47.82-27.08a4.39,4.39,0,1,1,7.67-4.28ZM55.08,61.88s4.22.39,8.28-11.42c2.55-8.69,13.25-4.61,20.21,1.51-3.33,0-5.53,1.18-6.82,5-4.06,11.81-8.28,11.42-8.28,11.42S45.33,79.75,40.56,105.54l-1.08,2.23c.07.09-.24,0-.17.07l-1-.48c-2.56-2.73-5.33-5.92-8.28-9.67a6.59,6.59,0,0,0-2.26-1.42C33.61,72.45,55.08,61.88,55.08,61.88Zm214,170.25c-7,7.63-19.41,8.24-22.74,8.28l-3.57-1.73a3.79,3.79,0,0,0-2.66-.19l-8.2,1a8.56,8.56,0,0,0-2.86,1.37c-5.49,4.5-8.17,3.21-9.51,2.56-3.57-1.73-6.29-6.35-7.2-7.89a4.74,4.74,0,0,0-3.58-2.84l-7.33-.79a5,5,0,0,0-3.76.93c-3.73,3.15-7.72,3.43-12.63,1a32.19,32.19,0,0,1-6.94-5,15.34,15.34,0,0,0-8.83-13.64,20.25,20.25,0,0,0-5.34-1.48,4.47,4.47,0,0,0-4,1.38c-2,1.8-5.27,4.06-11.52,1-10.71-5.18-20.89-20.58-21.83-24.33-1.38-4-4.31-7.05-9.22-9.42-7.14-3.46-15.58-4.24-15.59-5.35-17.53-.22-39.79-6.58-48.48-9.13-.33-8.43-5.48-12.58-8.61-14.09a22.4,22.4,0,0,0-14.21-1.37c-17.89-10.86-19.76-18.37-19.8-21.7.16-4.88,7.21-8.08,7.21-8.08a5.2,5.2,0,0,0,2.81-5.8q-1.72-5,.57-8a5.73,5.73,0,0,1,3-2.5,123.26,123.26,0,0,0,19.05,18.45,60.54,60.54,0,0,0,5.2,3.6,36,36,0,0,0,3.2,1.8l.89.43h0l.89.43a250.94,250.94,0,0,1,29.25,12c23.46,11.4,32.4,21.2,32.85,21.41,23.37,23.43,46.89,40.88,69.65,51.9l.5.23.4.2c45.09,21.82,73.8,12.58,78,10.75A42,42,0,0,0,274.1,223,18.4,18.4,0,0,1,269.11,232.13Z"/></svg>